<?xml version="1.0" standalone="no"?>
<!DOCTYPE svg PUBLIC "-//W3C//DTD SVG 20010904//EN"
 "http://www.w3.org/TR/2001/REC-SVG-20010904/DTD/svg10.dtd">
<svg version="1.0" xmlns="http://www.w3.org/2000/svg"
 width="626.000000pt" height="417.000000pt" viewBox="0 0 626.000000 417.000000"
 preserveAspectRatio="xMidYMid meet">

<g transform="translate(0.000000,417.000000) scale(0.100000,-0.100000)"
fill="#000000" stroke="none">
<path d="M0 2725 l0 -1445 53 31 c47 27 123 65 356 176 280 133 488 181 641
148 41 -9 87 -16 101 -15 18 0 28 -6 32 -19 5 -19 134 -94 148 -86 4 3 13 28
20 55 8 30 21 56 35 64 12 8 24 24 27 36 5 20 3 21 -26 16 -18 -3 -74 -8 -125
-12 -50 -4 -92 -11 -92 -15 0 -5 -9 -9 -20 -9 -24 0 -27 32 -5 50 20 16 19 40
-1 40 -9 0 -12 5 -8 11 4 8 25 9 57 5 28 -3 82 -1 119 5 57 9 73 8 99 -5 47
-23 63 -20 128 24 32 22 78 49 102 59 126 55 302 54 524 -4 257 -67 387 -85
569 -80 89 2 445 7 791 10 347 3 638 8 648 11 21 7 22 46 2 78 -16 24 -16 24
34 31 27 4 58 13 68 21 16 12 15 13 -19 14 -20 0 -44 3 -54 7 -12 4 -15 3 -10
-5 5 -8 -3 -12 -27 -12 -19 0 -50 -2 -68 -5 l-34 -5 35 11 35 11 -25 11 c-26
11 -227 26 -337 26 -33 0 -63 4 -66 8 -5 7 -79 8 -364 3 -17 0 -38 -7 -46 -15
-8 -8 -18 -11 -22 -7 -4 4 -4 -4 0 -17 5 -16 4 -21 -4 -17 -15 10 -14 -7 2
-23 9 -11 9 -13 0 -7 -16 9 -17 -6 -1 -22 14 -14 -818 -12 -841 2 -17 11 -10
131 12 191 l14 40 89 5 c49 3 94 9 101 13 15 9 5 47 -13 47 -8 0 -14 3 -14 8
0 15 31 52 44 52 7 0 21 7 32 15 18 14 17 15 -17 9 -36 -6 -37 -5 -41 28 -6
52 5 83 29 86 23 3 53 -30 53 -60 0 -24 18 -32 35 -14 17 16 20 46 5 46 -9 0
-31 21 -105 104 -15 15 -24 33 -22 40 6 14 -18 37 -28 28 -4 -4 -4 8 0 27 7
32 6 33 -18 27 -14 -3 -29 -2 -32 4 -3 5 -17 10 -31 10 -13 0 -24 5 -24 10 0
6 -8 10 -18 10 -11 0 -18 7 -18 20 0 18 8 24 29 21 99 -16 179 -38 208 -56 41
-26 139 -169 139 -202 0 -15 6 -23 18 -23 9 0 27 -15 40 -33 12 -17 39 -51 60
-74 37 -42 37 -42 60 -23 l23 19 -46 62 c-25 34 -50 70 -55 78 -7 14 -10 14
-27 -2 -24 -21 -33 -22 -33 -2 0 9 -9 34 -20 56 -23 45 -19 81 8 73 10 -4 13
-2 7 3 -11 9 -16 31 -19 76 -1 25 -2 26 -14 10 -7 -10 -11 -26 -8 -35 2 -11
-1 -18 -10 -18 -8 0 -14 10 -14 21 0 18 -2 19 -15 9 -12 -10 -15 -9 -15 8 0
13 -11 25 -30 34 -18 7 -30 20 -30 31 0 11 -9 21 -20 24 -11 3 -20 13 -21 22
0 10 -2 11 -6 4 -9 -23 -22 -13 -25 20 -2 25 -8 32 -25 32 -13 0 -28 6 -34 12
-6 6 -17 9 -24 6 -8 -3 -15 5 -17 19 -4 29 -39 36 -70 14 -26 -18 -79 -21 -95
-5 -8 8 -15 4 -26 -16 -9 -18 -17 -24 -21 -16 -10 16 2 48 22 56 33 14 340 18
371 5 21 -8 46 -38 80 -90 27 -43 59 -81 70 -85 22 -7 51 -52 51 -80 0 -8 13
-42 30 -75 33 -66 37 -92 16 -110 -8 -6 -12 -18 -9 -26 8 -23 51 -16 91 14 20
15 33 21 28 15 -4 -8 -2 -13 8 -13 8 0 19 -7 24 -16 5 -9 15 -15 22 -12 9 3 8
8 -4 21 -13 12 -14 17 -4 18 7 1 2 4 -12 8 -23 6 -21 8 25 35 28 16 65 40 82
53 31 22 94 39 248 63 28 4 62 13 77 20 23 11 35 10 75 -5 26 -10 62 -18 80
-17 22 1 47 -9 76 -28 23 -17 56 -32 74 -34 21 -2 44 -16 66 -40 19 -20 48
-41 65 -47 26 -9 35 -22 61 -91 17 -44 31 -86 31 -94 0 -7 12 -21 27 -31 30
-20 137 -178 147 -219 5 -19 10 -24 18 -16 11 11 -38 97 -103 182 l-27 35 322
-9 c176 -5 322 -9 323 -11 2 -1 -5 -39 -14 -84 l-16 -83 28 -22 28 -23 -23
-31 c-13 -18 -30 -32 -37 -32 -22 0 -33 -42 -17 -65 8 -11 18 -30 24 -42 6
-14 30 -29 69 -44 66 -24 78 -44 32 -54 -46 -10 -117 -62 -132 -96 -11 -29
-15 -31 -48 -25 -20 3 -73 24 -118 46 -69 34 -84 46 -100 80 -10 22 -23 40
-29 40 -18 0 -111 -104 -127 -143 -8 -19 -21 -60 -28 -91 -7 -31 -18 -61 -26
-67 -7 -6 -13 -31 -13 -54 0 -42 1 -43 58 -68 165 -73 654 -241 680 -233 10 3
73 10 142 16 156 13 283 28 335 40 22 5 66 14 97 20 40 8 81 27 133 61 42 27
80 47 86 44 16 -10 15 55 -2 178 l-11 77 -47 -1 c-25 -1 -73 -10 -106 -20 -78
-25 -291 -47 -307 -31 -8 8 -5 12 13 16 153 34 239 60 271 81 47 31 51 55 4
26 -52 -33 -180 -61 -302 -68 -121 -6 -127 -4 -130 50 -1 19 -16 44 -44 72
l-42 42 47 32 c25 17 50 31 54 31 5 0 12 7 15 16 12 30 6 44 -18 44 -29 0 -35
13 -28 60 6 45 19 60 48 60 14 0 24 6 24 14 0 16 -42 31 -110 41 -91 12 -268
54 -275 65 -2 4 2 31 10 61 7 30 16 75 20 101 3 26 9 49 13 52 12 7 193 -13
258 -29 97 -24 172 -17 112 10 -40 19 -44 39 -13 79 15 20 33 36 41 36 7 0 17
8 23 18 8 14 12 15 23 4 16 -16 2 -42 -30 -57 -24 -11 -37 -35 -24 -44 16 -10
32 -49 32 -75 0 -26 1 -26 83 -26 157 0 683 -10 785 -15 l102 -5 0 381 0 381
-22 -5 c-13 -3 -38 -10 -56 -15 -19 -6 -30 -7 -27 -1 12 18 -45 9 -65 -11 -12
-12 -33 -20 -54 -20 -25 0 -40 -7 -51 -22 -13 -20 -17 -21 -26 -8 -9 13 -10
12 -5 -2 3 -10 1 -18 -5 -18 -6 0 -3 -7 5 -16 9 -8 14 -20 11 -25 -4 -5 -1 -9
4 -9 6 0 11 -11 11 -25 0 -18 5 -25 19 -25 24 0 32 -19 18 -45 -10 -19 -10
-19 -17 0 -5 15 -8 9 -13 -22 -4 -23 -14 -43 -22 -47 -20 -7 -52 13 -58 36 -4
15 -13 18 -42 14 -31 -4 -37 -1 -45 18 -5 13 -16 26 -25 30 -11 4 -15 13 -12
26 5 21 0 23 -45 20 -21 -1 -32 7 -53 39 -23 34 -26 47 -21 88 6 49 -4 81 -22
69 -16 -9 -23 -67 -11 -83 16 -18 7 -25 -37 -30 -38 -4 -38 -6 -17 44 7 17
-58 56 -71 43 -16 -16 -43 -11 -49 9 -3 15 4 22 34 34 52 21 67 54 45 100 -9
19 -23 37 -31 41 -8 3 -15 11 -15 17 0 7 -8 18 -17 25 -17 13 -17 13 0 14 22
0 20 41 -2 48 -9 3 -11 -2 -6 -17 5 -15 2 -21 -9 -21 -9 0 -16 9 -16 21 0 12
-4 17 -11 13 -6 -3 -23 7 -37 24 -28 31 -76 49 -87 32 -12 -19 -21 -10 -39 39
-18 52 -42 72 -50 43 -16 -58 -13 -87 22 -224 35 -136 40 -150 71 -172 51 -38
76 -79 90 -151 9 -45 16 -63 22 -54 7 11 9 10 9 -3 0 -15 3 -15 40 -1 22 9 40
20 40 24 0 5 7 6 16 2 9 -3 19 -1 23 6 5 8 16 4 34 -13 26 -24 37 -43 18 -31
-14 8 -21 -9 -10 -25 7 -13 9 -13 9 -1 0 11 3 11 18 -2 12 -11 31 -15 62 -12
79 7 101 -8 124 -82 6 -20 4 -23 -20 -23 -15 0 -38 -9 -50 -21 -19 -18 -21
-28 -17 -83 5 -56 3 -66 -17 -86 -35 -35 -46 -14 -33 62 11 66 4 98 -22 98
-21 0 -29 -19 -26 -70 1 -34 -4 -53 -18 -71 -10 -13 -22 -21 -26 -17 -9 8 -9
68 -1 130 6 48 -4 68 -27 50 -7 -5 -32 -10 -56 -10 -24 -1 -45 -3 -48 -6 -5
-4 1 -32 48 -228 23 -95 24 -104 4 -88 -7 6 -17 33 -21 58 -8 56 -27 97 -60
127 -18 17 -25 36 -28 74 -4 46 -3 51 16 51 17 0 19 5 15 28 -4 15 -14 77 -23
137 -24 159 -34 172 -94 110 -19 -19 -41 -35 -51 -35 -12 0 -8 9 17 36 34 35
44 77 23 90 -6 3 -15 1 -20 -7 -10 -17 -24 17 -33 86 -10 72 -16 87 -32 81
-29 -11 -44 131 -42 389 3 337 2 349 -46 424 -38 58 -64 81 -99 85 -37 6 -90
34 -132 71 -22 19 -44 35 -48 35 -14 0 -138 92 -150 111 -7 11 -22 19 -34 19
-24 0 -31 -14 -13 -25 6 -3 10 -13 10 -21 0 -21 -54 -17 -75 6 -10 11 -31 20
-46 20 -15 0 -31 4 -34 10 -4 6 -100 9 -250 9 l-245 -1 0 -28 c0 -15 -3 -43
-7 -61 -6 -31 -5 -33 10 -20 22 18 23 2 3 -65 -8 -27 -29 -157 -46 -289 -17
-132 -37 -278 -45 -325 -7 -47 -19 -128 -25 -180 -13 -104 -61 -382 -86 -497
-10 -47 -20 -73 -29 -73 -13 0 -63 57 -83 96 -8 15 -10 112 -6 323 3 242 1
327 -12 424 -16 128 -13 211 11 243 13 18 14 17 24 -10 6 -15 10 -33 9 -40 -2
-6 2 -11 7 -11 12 0 11 4 -8 116 -16 93 -21 105 -76 187 -31 48 -33 55 -18 63
9 6 43 31 76 57 32 26 72 57 87 69 l29 22 -245 0 -245 0 30 -22 c16 -12 56
-45 88 -74 31 -28 74 -56 95 -62 l37 -11 -42 4 c-41 4 -44 2 -94 -55 -49 -56
-78 -112 -79 -152 0 -13 5 -16 23 -12 31 8 74 -10 82 -34 3 -11 -7 -63 -24
-118 -21 -70 -32 -136 -40 -234 -11 -141 -28 -223 -31 -144 -3 96 -17 73 -24
-40 -8 -132 -19 -190 -44 -220 -36 -42 -44 -72 -62 -212 -25 -198 -32 -202
-55 -37 -16 114 -36 311 -60 599 -8 94 -15 253 -15 354 0 162 2 182 15 171 13
-11 15 -7 16 26 2 53 2 56 16 79 20 36 25 93 13 145 l-12 50 -1579 0 -1579 0
0 -1445z m1218 826 c2 -28 9 -48 14 -45 5 3 12 -3 15 -15 3 -12 17 -24 32 -28
14 -3 72 -28 128 -54 148 -70 231 -85 310 -55 49 19 274 69 280 62 7 -6 -49
-96 -59 -96 -17 0 -6 -59 37 -198 49 -163 184 -564 220 -657 32 -81 45 -134
35 -140 -4 -3 -10 2 -14 10 -3 9 -18 15 -38 15 -23 0 -29 3 -19 9 8 5 20 7 28
4 7 -3 13 -4 13 -2 0 2 -58 180 -129 394 -71 215 -131 399 -134 410 -6 20 0
-184 8 -305 3 -36 7 -101 10 -145 8 -124 7 -120 51 -123 117 -7 141 -27 33
-27 -61 0 -72 -3 -75 -17 -1 -10 1 -18 4 -18 4 0 7 -21 7 -47 -1 -76 5 -83 83
-84 39 0 59 -3 49 -8 -17 -6 -16 -9 10 -21 27 -13 27 -14 6 -18 -24 -4 -30
-17 -13 -27 6 -3 10 -15 10 -26 0 -17 -7 -19 -70 -19 -73 0 -77 3 -61 44 4 11
10 15 14 10 3 -6 21 -8 39 -6 28 4 30 6 13 13 -11 4 -33 8 -48 8 -16 1 -26 5
-23 9 2 4 0 14 -5 22 -7 12 -10 11 -15 -6 -5 -20 -15 -22 -127 -28 -184 -11
-194 -13 -191 -44 1 -15 -1 -19 -3 -9 -5 18 -11 20 -56 17 -26 -1 -28 0 -18
19 6 11 19 24 28 30 14 8 15 13 5 33 -12 23 -12 23 -8 1 2 -13 0 -23 -4 -23
-5 0 -12 16 -16 35 -9 52 16 82 104 121 3 2 56 173 178 574 19 63 37 122 41
130 3 8 5 26 4 39 -2 16 1 21 9 16 8 -5 11 -3 8 6 -6 17 -22 16 -106 -2 -49
-10 -69 -11 -95 -1 -18 7 -49 12 -68 12 -85 1 -220 49 -296 107 -32 23 -33 23
-33 4 0 -17 -6 -21 -30 -21 -23 0 -30 -4 -30 -20 0 -12 -7 -20 -18 -20 -16 0
-17 -9 -11 -107 10 -166 18 -980 9 -888 -8 80 -28 626 -31 868 -2 98 -5 127
-16 127 -8 0 -13 12 -13 35 0 19 -4 35 -10 35 -5 0 -10 -7 -10 -15 0 -20 -30
-34 -61 -28 -27 5 -106 -24 -219 -81 -81 -41 -119 -49 -153 -31 -26 13 -27 13
-27 -9 0 -31 -26 -36 -131 -21 -78 11 -88 20 -29 27 14 2 26 11 28 21 3 14 -4
17 -43 17 -26 0 -44 -4 -40 -9 3 -5 0 -13 -6 -16 -5 -4 -8 -13 -5 -21 3 -8 1
-14 -3 -14 -12 0 -21 27 -15 44 4 9 -2 16 -17 18 -12 2 -24 9 -27 17 -3 9 2
11 14 8 11 -3 71 -9 134 -12 63 -4 132 -14 153 -22 33 -14 42 -14 90 2 28 9
66 25 82 35 17 10 62 31 100 46 39 15 77 33 85 39 16 13 75 45 84 45 2 0 7 -8
9 -17 3 -10 5 -1 6 19 0 20 6 38 13 40 8 3 11 25 9 64 -2 46 0 56 10 47 6 -6
14 -35 17 -62z m1872 -321 c19 -155 43 -601 33 -626 -4 -11 -73 -25 -82 -17
-12 9 -31 174 -37 314 -7 166 3 301 37 488 10 58 20 107 21 110 1 3 3 -19 5
-49 2 -30 12 -129 23 -220z m-2530 -295 c48 -201 95 -387 139 -542 11 -40 18
-73 16 -73 -14 0 -62 151 -80 252 -3 15 -9 38 -14 50 -9 24 -67 256 -96 388
-9 41 -21 88 -26 104 -5 16 -9 43 -8 60 l1 31 9 -30 c5 -16 31 -124 59 -240z
m1854 113 c106 -123 166 -201 160 -207 -3 -3 -20 12 -37 34 -46 58 -147 156
-157 150 -4 -3 -14 3 -21 13 -13 15 -12 16 4 3 24 -19 21 -2 -4 25 -12 13 -28
20 -37 17 -10 -4 -13 -2 -8 5 17 27 55 12 100 -40z m-1999 -118 c-26 -71 -34
-70 -10 1 24 70 25 72 30 68 2 -3 -7 -34 -20 -69z m5026 -84 c5 3 9 -7 9 -23
l0 -28 -15 29 c-8 15 -15 31 -14 35 0 3 3 0 6 -7 2 -6 9 -10 14 -6z m49 -57
c14 -24 9 -32 -14 -23 -17 7 -23 44 -6 44 5 0 14 -9 20 -21z m-3108 -94 c51
-32 68 -55 40 -55 -21 -1 -52 -23 -52 -38 0 -17 -108 -6 -127 13 -12 12 -13
19 -3 30 7 8 17 15 23 15 16 0 57 41 57 58 0 16 1 16 62 -23z m34 -112 c-11
-11 -19 6 -11 24 8 17 8 17 12 0 3 -10 2 -21 -1 -24z m-2115 0 c-12 -20 -14
-14 -5 12 4 9 9 14 11 11 3 -2 0 -13 -6 -23z m4806 -78 c111 -18 151 -36 181
-82 37 -58 24 -74 -35 -44 -21 11 -76 27 -123 36 -47 9 -96 19 -109 21 -14 3
-20 9 -15 14 6 6 36 5 77 -1 38 -6 71 -9 73 -6 3 3 -28 10 -68 17 -96 15 -148
29 -148 39 0 26 37 27 167 6z m-4846 -28 c-10 -9 -11 -8 -5 6 3 10 9 15 12 12
3 -3 0 -11 -7 -18z m5549 -27 c0 -5 -4 -10 -10 -10 -5 0 -10 5 -10 10 0 6 5
10 10 10 6 0 10 -4 10 -10z m-271 -41 c-14 -8 -29 -3 -29 11 0 4 9 6 21 3 15
-4 17 -8 8 -14z m-39 1 c0 -5 -2 -10 -4 -10 -3 0 -8 5 -11 10 -3 6 -1 10 4 10
6 0 11 -4 11 -10z m-640 -42 c0 -5 -7 -3 -15 6 -8 8 -15 18 -15 22 0 3 7 1 15
-6 8 -7 15 -17 15 -22z m-2896 -54 c4 -15 6 -27 4 -29 -2 -1 -73 -5 -158 -8
-130 -5 -150 -4 -122 6 18 7 30 15 27 19 -13 13 97 34 191 37 48 1 52 -1 58
-25z m325 -14 c7 0 9 -4 6 -10 -10 -16 -69 -40 -95 -39 -14 1 -45 -4 -70 -11
-58 -17 -190 -25 -190 -12 0 13 28 19 123 27 46 5 84 13 92 22 8 8 20 13 27
12 7 -1 28 -1 47 0 29 1 33 4 28 24 -5 20 -5 20 7 5 7 -10 19 -18 25 -18z
m-2091 -16 c-7 -15 -14 -21 -16 -15 -2 7 2 18 8 26 18 22 21 18 8 -11z m492 4
c24 -26 27 -46 4 -27 -21 17 -34 -3 -28 -43 2 -23 0 -29 -14 -26 -11 2 -17 13
-17 30 1 22 -5 29 -27 33 -34 8 -299 -14 -313 -25 -6 -5 -28 -10 -49 -12 -31
-2 -39 1 -41 14 -2 10 0 20 5 23 22 14 169 37 275 44 189 13 182 13 205 -11z
m50 -42 c0 -26 -6 -18 -14 19 -5 22 -4 26 4 15 5 -8 10 -24 10 -34z m91 7 c12
-15 12 -16 -4 -10 -10 4 -27 7 -38 7 -10 0 -19 5 -19 10 0 16 47 11 61 -7z
m4623 -18 c11 -8 15 -15 10 -15 -6 0 -19 7 -30 15 -10 8 -14 14 -9 14 6 0 19
-6 29 -14z m-3524 -5 c0 -13 -40 -13 -60 0 -11 7 -5 10 23 10 20 0 37 -4 37
-10z m-1357 -10 c26 0 47 -4 47 -10 0 -5 -17 -10 -37 -10 -21 0 -92 -7 -158
-15 -65 -8 -120 -13 -121 -12 -1 1 4 10 11 21 19 25 68 36 145 31 36 -3 86 -5
113 -5z m1257 0 c0 -5 -2 -10 -4 -10 -3 0 -8 5 -11 10 -3 6 -1 10 4 10 6 0 11
-4 11 -10z m-1030 -10 c0 -5 -5 -10 -11 -10 -5 0 -7 5 -4 10 3 6 8 10 11 10 2
0 4 -4 4 -10z m980 -5 c20 -24 6 -28 -15 -5 -10 11 -13 20 -8 20 6 0 16 -7 23
-15z m-1500 -25 c0 -13 -7 -20 -18 -20 -26 0 -34 11 -21 27 17 20 39 16 39 -7z
m719 16 c-11 -9 -69 -14 -69 -6 0 6 17 10 37 10 20 0 34 -2 32 -4z m-161 -38
c-3 -7 -18 -14 -34 -16 l-29 -2 25 14 c31 19 43 20 38 4z m69 -14 c-3 -3 -12
-4 -19 -1 -8 3 -5 6 6 6 11 1 17 -2 13 -5z m-66 -34 c32 -18 21 -29 -33 -33
-29 -3 48 -3 172 -2 124 1 209 1 190 -1 -19 -2 -84 -9 -145 -15 -60 -6 -114
-13 -118 -16 -4 -3 -3 -11 4 -19 9 -12 6 -14 -22 -13 -19 1 -47 5 -64 9 -28 7
-27 8 14 9 84 2 30 15 -77 18 -124 3 -213 -6 -172 -18 22 -6 20 -7 -15 -10
-95 -7 -120 6 -83 41 22 21 29 22 138 16 94 -4 109 -3 80 6 l-35 11 65 12 c36
7 69 13 73 14 5 0 17 -4 28 -9z m904 -50 c-3 -5 -25 -10 -48 -10 -23 0 -48 -4
-56 -9 -22 -14 -2 -34 28 -28 15 3 33 2 41 -4 10 -6 -4 -9 -43 -9 -50 0 -57 2
-55 18 3 14 -6 17 -54 20 -82 4 -72 20 15 25 160 7 178 7 172 -3z m-595 -27
c25 -4 49 -7 54 -7 5 -1 11 -7 14 -15 4 -12 -16 -13 -119 -7 -68 4 -132 7
-141 7 -28 0 -21 18 10 25 15 3 32 7 37 9 11 3 72 -2 145 -12z m-393 -9 c-3
-3 -12 -4 -19 -1 -8 3 -5 6 6 6 11 1 17 -2 13 -5z m1003 -9 c-14 -17 -30 -20
-30 -6 0 5 8 12 18 14 9 3 19 5 21 6 2 0 -2 -6 -9 -14z m-442 -12 c-10 -2 -26
-2 -35 0 -10 3 -2 5 17 5 19 0 27 -2 18 -5z m-19 -77 c12 -18 21 -43 21 -54 0
-21 -5 -24 -70 -35 -14 -2 -32 -8 -41 -11 -27 -11 -31 21 -9 69 11 24 20 49
20 54 0 6 13 11 29 11 23 0 34 -8 50 -34z m2378 14 c72 -6 142 -15 155 -20 20
-9 18 -10 -12 -5 -19 2 -107 9 -195 15 -88 7 -162 13 -164 16 -7 7 76 5 216
-6z m-2252 -120 c-3 -5 -14 -10 -24 -10 -9 0 -21 -4 -27 -10 -10 -10 -182 -30
-201 -22 -29 10 -11 24 22 19 35 -6 201 16 213 27 9 10 23 6 17 -4z m-108
-216 c-3 -3 -12 -4 -19 -1 -8 3 -5 6 6 6 11 1 17 -2 13 -5z"/>
<path d="M1905 3340 c-3 -5 -1 -10 4 -10 6 0 11 5 11 10 0 6 -2 10 -4 10 -3 0
-8 -4 -11 -10z"/>
<path d="M1886 3129 c-15 -77 -79 -278 -87 -273 -5 3 -6 -1 -3 -9 3 -8 -16
-78 -41 -157 -26 -78 -44 -144 -41 -147 3 -3 27 0 53 7 26 7 77 18 113 24 l65
12 -3 84 c-1 47 -9 146 -17 220 -8 74 -15 161 -16 192 -3 69 -14 92 -23 47z"/>
<path d="M1851 2548 c-131 -26 -157 -39 -176 -85 -9 -21 -19 -51 -22 -67 -6
-28 -5 -29 23 -22 60 16 137 25 219 27 83 3 85 3 72 23 -8 12 -15 48 -16 81
-2 33 -3 61 -4 61 -1 1 -44 -7 -96 -18z"/>
<path d="M1640 2445 c-6 -19 -10 -42 -8 -52 2 -9 10 7 20 35 9 29 12 52 8 52
-5 0 -14 -16 -20 -35z"/>
<path d="M2310 2625 c0 -8 5 -15 10 -15 6 0 10 7 10 15 0 8 -4 15 -10 15 -5 0
-10 -7 -10 -15z"/>
<path d="M493 2033 c9 -2 23 -2 30 0 6 3 -1 5 -18 5 -16 0 -22 -2 -12 -5z"/>
<path d="M4795 4144 c149 -76 314 -171 347 -198 41 -34 58 -86 58 -176 0 -27
3 -51 8 -53 12 -8 276 14 286 23 13 13 7 189 -7 212 -10 16 -8 22 11 39 21 16
23 26 20 74 -1 30 1 55 5 55 5 0 2 6 -6 14 -28 28 -129 36 -451 36 l-321 -1
50 -25z"/>
<path d="M5847 2708 c-7 -27 5 -43 27 -35 20 8 15 51 -6 55 -9 2 -18 -7 -21
-20z"/>
<path d="M5910 2682 c0 -7 8 -22 19 -33 16 -17 20 -18 31 -4 7 8 10 22 6 30
-7 18 -36 20 -36 3 0 -9 -4 -8 -10 2 -7 11 -10 11 -10 2z"/>
<path d="M5421 2654 c0 -11 3 -14 6 -6 3 7 2 16 -1 19 -3 4 -6 -2 -5 -13z"/>
<path d="M3370 2500 c-12 -7 -12 -10 3 -16 21 -8 29 -3 19 13 -5 8 -13 9 -22
3z"/>
<path d="M3521 2453 c-14 -3 -47 -20 -75 -39 -28 -19 -58 -34 -66 -34 -8 0
-28 -7 -44 -15 -37 -19 -35 -21 -32 20 3 31 0 35 -20 35 -13 0 -24 -4 -24 -8
0 -5 -10 -14 -22 -20 -22 -11 -22 -11 4 -6 31 7 53 -23 42 -58 -9 -30 -75 -88
-99 -88 -24 0 -78 34 -68 43 3 4 -4 7 -16 7 -13 0 -36 10 -53 21 l-30 21 4
-28 c3 -25 8 -29 38 -32 19 -2 38 -10 43 -17 4 -8 33 -16 65 -20 31 -3 69 -12
83 -20 14 -8 46 -17 70 -20 l44 -6 -39 15 c-72 27 -74 53 -4 84 42 18 258 159
258 168 0 5 -24 3 -59 -3z"/>
<path d="M3731 2367 c-4 -4 -20 -10 -35 -13 -90 -16 -186 -62 -247 -120 l-47
-43 72 -6 c39 -4 172 -2 295 4 124 5 230 7 238 3 7 -4 23 -22 36 -40 13 -17
27 -29 30 -25 4 3 15 0 24 -8 16 -13 17 -12 5 2 -7 9 -11 21 -10 27 2 5 -5 18
-14 29 -9 10 -26 28 -38 41 -23 25 -57 29 -74 8 -8 -11 -43 -16 -126 -20 -63
-3 -165 -8 -227 -12 l-112 -7 -12 27 c-15 32 -12 35 43 47 23 6 50 16 58 23
18 16 119 48 223 71 42 9 77 18 77 20 0 8 -151 0 -159 -8z"/>
<path d="M3200 2360 c-8 -5 -11 -12 -8 -16 4 -3 14 1 23 10 18 17 9 21 -15 6z"/>
<path d="M3970 2330 c28 -21 33 -20 24 4 -3 9 -16 16 -28 16 -20 0 -20 -1 4
-20z"/>
<path d="M3010 2207 c0 -2 14 -16 30 -32 36 -35 40 -29 5 9 -21 23 -35 32 -35
23z"/>
<path d="M5262 2065 c-24 -97 -24 -98 -5 -90 31 14 77 16 93 5 11 -9 12 -13 2
-17 -6 -2 -10 -9 -6 -14 7 -12 51 -12 74 1 13 7 71 -4 216 -40 246 -61 313
-74 439 -91 55 -7 89 -15 76 -17 -39 -6 -76 -32 -166 -117 -56 -53 -75 -68
-100 -80 -11 -6 -21 -21 -23 -33 -2 -12 -9 -22 -17 -22 -7 0 -23 -8 -35 -18
l-23 -18 19 -73 c14 -54 21 -68 29 -58 5 8 19 17 30 21 26 9 93 66 77 66 -7 0
-12 5 -12 10 0 6 7 10 15 10 9 0 28 8 43 18 47 30 216 206 236 245 18 35 18
38 2 56 -14 16 -15 23 -6 41 25 46 -15 75 -114 84 -18 2 -38 6 -44 10 -6 4
-24 4 -39 0 -22 -4 -25 -3 -13 6 12 9 11 10 -8 5 -28 -8 -104 4 -97 15 3 5
-30 11 -72 15 -43 3 -123 13 -178 21 -55 7 -116 15 -137 17 -23 2 -49 15 -73
35 -19 18 -43 32 -53 31 -10 0 -12 -3 -4 -6 14 -5 16 -29 3 -37 -14 -9 -92 22
-106 41 -12 16 -14 13 -23 -22z m78 -41 c0 -2 -7 -4 -15 -4 -8 0 -15 4 -15 10
0 5 7 7 15 4 8 -4 15 -8 15 -10z m879 -255 c-7 -4 -17 -5 -22 -2 -5 3 -3 9 4
14 7 4 17 5 22 2 5 -3 3 -9 -4 -14z m-39 -59 c0 -5 -15 -10 -32 -10 -25 0 -29
3 -18 10 20 13 50 13 50 0z"/>
<path d="M6237 1861 c-4 -17 -3 -21 5 -13 5 5 8 16 6 23 -3 8 -7 3 -11 -10z"/>
<path d="M5465 1716 c-6 -7 -25 -32 -42 -56 -18 -24 -33 -47 -33 -52 0 -17 28
-7 57 20 16 16 44 37 61 48 39 22 39 27 7 42 -33 15 -38 15 -50 -2z"/>
<path d="M4830 784 c52 -13 134 -30 182 -36 48 -7 85 -15 83 -19 -12 -18 -143
-33 -280 -33 -158 0 -299 17 -520 61 -115 22 -147 25 -270 20 -225 -8 -340
-59 -485 -214 -126 -136 -162 -213 -122 -262 18 -24 19 -24 67 -8 27 10 59 17
71 17 13 0 25 4 28 9 4 5 25 12 49 16 23 4 89 22 147 40 58 18 134 40 170 48
36 9 102 25 147 36 45 12 117 28 160 36 43 9 115 25 160 36 104 25 223 47 223
42 0 -26 -865 -281 -1074 -318 -98 -17 -164 -48 -185 -89 -24 -44 -114 -62
-144 -28 -10 10 -17 31 -17 46 0 33 -39 111 -75 149 -49 52 -102 72 -190 71
-72 0 -95 -5 -220 -52 -110 -42 -347 -148 -517 -233 -24 -12 -58 -11 -58 1 0
17 -16 12 -168 -52 l-147 -63 1003 -3 1003 -2 96 25 c92 24 105 30 146 66 10
9 39 22 64 29 57 17 74 33 67 68 -5 25 -1 30 37 48 24 10 59 29 78 42 18 13
75 37 124 54 50 16 100 36 111 43 25 17 110 47 191 70 33 9 80 29 105 44 25
15 63 34 85 43 22 9 68 28 101 42 34 14 68 26 77 26 8 0 20 6 26 14 6 7 37 22
69 33 114 39 218 72 243 77 19 4 28 14 32 33 3 16 2 32 -3 37 -4 4 -66 -17
-137 -47 -70 -30 -135 -56 -143 -58 -22 -3 -71 12 -65 21 2 4 -14 28 -37 54
l-42 46 -170 -1 -171 -1 95 -24z"/>
<path d="M1 633 c0 -36 3 -43 9 -28 12 28 12 63 0 70 -6 4 -10 -12 -9 -42z"/>
<path d="M5154 515 c6 -17 -19 -45 -40 -45 -9 0 -14 -11 -14 -31 0 -29 2 -31
28 -24 44 10 54 26 46 73 -4 23 -11 42 -16 42 -6 0 -8 -7 -4 -15z"/>
<path d="M0 62 l0 -62 55 0 c50 0 55 2 46 17 -5 10 -30 38 -55 63 l-46 44 0
-62z"/>
</g>
</svg>
