<?xml version="1.0" encoding="utf-8"?>
<!-- Generator: Adobe Illustrator 28.0.0, SVG Export Plug-In . SVG Version: 6.00 Build 0)  -->
<svg version="1.1" id="Capa_1" xmlns="http://www.w3.org/2000/svg" xmlns:xlink="http://www.w3.org/1999/xlink" x="0px" y="0px"
	 viewBox="0 0 114.88 195.73" style="enable-background:new 0 0 114.88 195.73;" xml:space="preserve">
<style type="text/css">
	.st0{fill-rule:evenodd;clip-rule:evenodd;fill:url(#SVGID_1_);stroke:#000000;stroke-width:0.2835;stroke-miterlimit:10;}
	
		.st1{fill-rule:evenodd;clip-rule:evenodd;fill:url(#SVGID_00000145044118656125234480000011419592305047425169_);stroke:#000000;stroke-width:0.2835;stroke-miterlimit:10;}
	
		.st2{fill-rule:evenodd;clip-rule:evenodd;fill:url(#SVGID_00000112626927639632202440000005515376983151082135_);stroke:#000000;stroke-width:0.2835;stroke-miterlimit:10;}
	
		.st3{fill-rule:evenodd;clip-rule:evenodd;fill:url(#SVGID_00000082327487520191125140000013735707316282525624_);stroke:#000000;stroke-width:0.2835;stroke-miterlimit:10;}
	
		.st4{fill-rule:evenodd;clip-rule:evenodd;fill:url(#SVGID_00000041997538672776164840000001752875519074479513_);stroke:#000000;stroke-width:0.2835;stroke-miterlimit:10;}
	
		.st5{fill-rule:evenodd;clip-rule:evenodd;fill:url(#SVGID_00000075862886633190459790000015339538606715070646_);stroke:#000000;stroke-width:0.2835;stroke-miterlimit:10;}
	
		.st6{fill-rule:evenodd;clip-rule:evenodd;fill:url(#SVGID_00000080182337900528498720000016513078057610373049_);stroke:#000000;stroke-width:0.2835;stroke-miterlimit:10;}
	
		.st7{fill-rule:evenodd;clip-rule:evenodd;fill:url(#SVGID_00000120525322792090694230000008305632374515764394_);stroke:#000000;stroke-width:0.2835;stroke-miterlimit:10;}
	
		.st8{fill-rule:evenodd;clip-rule:evenodd;fill:url(#SVGID_00000117655016789949966150000018425346290567606932_);stroke:#000000;stroke-width:0.2835;stroke-miterlimit:10;}
	
		.st9{fill-rule:evenodd;clip-rule:evenodd;fill:url(#SVGID_00000158726280887645937960000003223815888551511431_);stroke:#000000;stroke-width:0.2835;stroke-miterlimit:10;}
	
		.st10{fill-rule:evenodd;clip-rule:evenodd;fill:url(#SVGID_00000008118286057740402150000002337460181668007064_);stroke:#000000;stroke-width:0.2835;stroke-miterlimit:10;}
	
		.st11{fill-rule:evenodd;clip-rule:evenodd;fill:url(#SVGID_00000119088751612182297470000003441167509689682057_);stroke:#000000;stroke-width:0.2835;stroke-miterlimit:10;}
	
		.st12{fill-rule:evenodd;clip-rule:evenodd;fill:url(#SVGID_00000091714451834953636400000009873302519688831633_);stroke:#000000;stroke-width:0.2835;stroke-miterlimit:10;}
	
		.st13{fill-rule:evenodd;clip-rule:evenodd;fill:url(#SVGID_00000109742616591770609120000002898278909152389817_);stroke:#000000;stroke-width:0.2835;stroke-miterlimit:10;}
	
		.st14{fill-rule:evenodd;clip-rule:evenodd;fill:url(#SVGID_00000049214038415194121020000006526115371320690107_);stroke:#000000;stroke-width:0.2835;stroke-miterlimit:10;}
	
		.st15{fill-rule:evenodd;clip-rule:evenodd;fill:url(#SVGID_00000125585933891468959680000012200259141504045482_);stroke:#000000;stroke-width:0.2835;stroke-miterlimit:10;}
	
		.st16{fill-rule:evenodd;clip-rule:evenodd;fill:url(#SVGID_00000023967977047215563220000009123559533026216333_);stroke:#000000;stroke-width:0.2835;stroke-miterlimit:10;}
</style>
<g>
	<radialGradient id="SVGID_1_" cx="61.1765" cy="-22.2176" r="101.868" gradientUnits="userSpaceOnUse">
		<stop  offset="0" style="stop-color:#FFFFFF"/>
		<stop  offset="0.5" style="stop-color:#F8B12D"/>
		<stop  offset="1" style="stop-color:#C31F22"/>
	</radialGradient>
	<path class="st0" d="M64.44,10.92c-21.45,27.16,32.21,45.46-6.95,69.81c17.89-9.44,35.27-17.87,30.16-35.26
		C78.62,32.55,65.98,28.6,64.44,10.92z"/>
	<g>
		
			<radialGradient id="SVGID_00000162324638822148676050000000888606502955771008_" cx="84.6153" cy="75.1823" r="23.8502" gradientUnits="userSpaceOnUse">
			<stop  offset="0" style="stop-color:#FFFFFF"/>
			<stop  offset="0.5" style="stop-color:#F8B12D"/>
			<stop  offset="1" style="stop-color:#C31F22"/>
		</radialGradient>
		
			<path style="fill-rule:evenodd;clip-rule:evenodd;fill:url(#SVGID_00000162324638822148676050000000888606502955771008_);stroke:#000000;stroke-width:0.2835;stroke-miterlimit:10;" d="
			M99.93,69.78c0.21,6.77-1.62,13.13-5.28,18.83c1.28,2.83,1.72,6.37,0.11,10.08c5.98-7.35,8.94-15.89,7.72-24.25
			C101.71,72.84,100.86,71.28,99.93,69.78z"/>
		
			<radialGradient id="SVGID_00000072269633142101673270000000834673823420617899_" cx="56.6499" cy="92.9806" r="63.8892" gradientUnits="userSpaceOnUse">
			<stop  offset="0" style="stop-color:#FFFFFF"/>
			<stop  offset="0.5" style="stop-color:#F8B12D"/>
			<stop  offset="1" style="stop-color:#C31F22"/>
		</radialGradient>
		
			<path style="fill-rule:evenodd;clip-rule:evenodd;fill:url(#SVGID_00000072269633142101673270000000834673823420617899_);stroke:#000000;stroke-width:0.2835;stroke-miterlimit:10;" d="
			M80.55,110.56c-33.94,19.59-14.3,42.11,7.78,24.7c11.6-9.15,19.04-23.32,19.04-39.24c0-7.73-1.76-15.05-4.9-21.59
			C104.44,87.95,95.53,101.91,80.55,110.56z"/>
		
			<radialGradient id="SVGID_00000178185419727336304120000003213435248574454159_" cx="67.6565" cy="104.9523" r="45.5914" gradientUnits="userSpaceOnUse">
			<stop  offset="0" style="stop-color:#FFFFFF"/>
			<stop  offset="0.5" style="stop-color:#F8B12D"/>
			<stop  offset="1" style="stop-color:#C31F22"/>
		</radialGradient>
		
			<path style="fill-rule:evenodd;clip-rule:evenodd;fill:url(#SVGID_00000178185419727336304120000003213435248574454159_);stroke:#000000;stroke-width:0.2835;stroke-miterlimit:10;" d="
			M80.55,110.56c-25.28,14.6-20.83,30.82-7.79,30.94c-10.49-0.89-11.5-15.99,9.22-27.96c14.98-8.65,24-25.93,20.49-39.11
			C104.44,87.95,95.53,101.91,80.55,110.56z"/>
		
			<radialGradient id="SVGID_00000077308746846429867280000008476471148942218626_" cx="78.1418" cy="110.1442" r="36.8633" gradientUnits="userSpaceOnUse">
			<stop  offset="0" style="stop-color:#FFFFFF"/>
			<stop  offset="0.33" style="stop-color:#FFFFFF"/>
			<stop  offset="0.66" style="stop-color:#FFFFFF;stop-opacity:0"/>
			<stop  offset="1" style="stop-color:#FFFFFF;stop-opacity:0"/>
		</radialGradient>
		
			<path style="fill-rule:evenodd;clip-rule:evenodd;fill:url(#SVGID_00000077308746846429867280000008476471148942218626_);stroke:#000000;stroke-width:0.2835;stroke-miterlimit:10;" d="
			M81.08,112.64c-15.82,9.14-19.63,20.85-14,26.08c-4.07-5.07-0.91-16.04,14.91-25.18c12.57-7.26,20.94-20.59,21.24-32.48
			C102.36,93.04,93.65,105.38,81.08,112.64z"/>
		
			<linearGradient id="SVGID_00000111159609556427711190000013249729660460328576_" gradientUnits="userSpaceOnUse" x1="87.0315" y1="213.7137" x2="87.0315" y2="96.2431">
			<stop  offset="0" style="stop-color:#FFFFFF"/>
			<stop  offset="1" style="stop-color:#FFFFFF;stop-opacity:0"/>
		</linearGradient>
		
			<path style="fill-rule:evenodd;clip-rule:evenodd;fill:url(#SVGID_00000111159609556427711190000013249729660460328576_);stroke:#000000;stroke-width:0.2835;stroke-miterlimit:10;" d="
			M68.5,137.59c4.25,5.31,14.76-0.63,18.71-3.75c14.45-11.4,21.11-29.93,17.31-47.85C105.57,113.02,86.95,129.71,68.5,137.59z"/>
	</g>
	<g>
		
			<radialGradient id="SVGID_00000082356987334334407940000014920856223777941151_" cx="1.3124" cy="126.9366" r="38.2364" gradientUnits="userSpaceOnUse">
			<stop  offset="0" style="stop-color:#FFFFFF"/>
			<stop  offset="0.5" style="stop-color:#F8B12D"/>
			<stop  offset="1" style="stop-color:#C31F22"/>
		</radialGradient>
		
			<path style="fill-rule:evenodd;clip-rule:evenodd;fill:url(#SVGID_00000082356987334334407940000014920856223777941151_);stroke:#000000;stroke-width:0.2835;stroke-miterlimit:10;" d="
			M21.07,95.71c-6.03,8.28-8.73,18.62-3.21,30.76c0.63,0.81,1.28,1.61,1.95,2.38c-3.03-8.44-1.02-17.33,3.53-24.8
			C21.8,101.67,21.07,98.87,21.07,95.71z"/>
		
			<radialGradient id="SVGID_00000082349338622646408890000014572654386796123048_" cx="27.9822" cy="2.9927" r="143.6069" gradientUnits="userSpaceOnUse">
			<stop  offset="0" style="stop-color:#FFFFFF"/>
			<stop  offset="0.5" style="stop-color:#F8B12D"/>
			<stop  offset="1" style="stop-color:#C31F22"/>
		</radialGradient>
		
			<path style="fill-rule:evenodd;clip-rule:evenodd;fill:url(#SVGID_00000082349338622646408890000014572654386796123048_);stroke:#000000;stroke-width:0.2835;stroke-miterlimit:10;" d="
			M31.15,53.5C16.86,62.15,7.5,78.08,7.5,96.02c0,11.46,3.86,22.02,10.35,30.45C6.76,102.07,28.9,84.97,44.42,77.15
			c23.76-13.72,13.19-29.8,9.28-44.15C54.05,63.84,13.94,71.04,31.15,53.5z"/>
		
			<radialGradient id="SVGID_00000080193550514334896630000004434727531960312705_" cx="40.0493" cy="83.6737" r="39.4909" gradientUnits="userSpaceOnUse">
			<stop  offset="0" style="stop-color:#FFFFFF"/>
			<stop  offset="0.5" style="stop-color:#F8B12D"/>
			<stop  offset="1" style="stop-color:#C31F22"/>
		</radialGradient>
		
			<path style="fill-rule:evenodd;clip-rule:evenodd;fill:url(#SVGID_00000080193550514334896630000004434727531960312705_);stroke:#000000;stroke-width:0.2835;stroke-miterlimit:10;" d="
			M31.15,53.5C-1.04,79.03,59.99,77.85,53.7,33.01C54.05,63.84,13.94,71.04,31.15,53.5z"/>
		
			<radialGradient id="SVGID_00000071530102397764164970000012802463273014482094_" cx="41.4594" cy="74.252" r="27.5175" gradientUnits="userSpaceOnUse">
			<stop  offset="0" style="stop-color:#FFFFFF"/>
			<stop  offset="0.33" style="stop-color:#FFFFFF"/>
			<stop  offset="0.66" style="stop-color:#FFFFFF;stop-opacity:0"/>
			<stop  offset="1" style="stop-color:#FFFFFF;stop-opacity:0"/>
		</radialGradient>
		
			<path style="fill-rule:evenodd;clip-rule:evenodd;fill:url(#SVGID_00000071530102397764164970000012802463273014482094_);stroke:#000000;stroke-width:0.2835;stroke-miterlimit:10;" d="
			M21.9,64.56c-3.03,11.98,32.92,5.95,32.25-26.08C53.9,67.85,20.79,74.27,21.9,64.56z"/>
		
			<linearGradient id="SVGID_00000098931496745634888830000010246553968956163492_" gradientUnits="userSpaceOnUse" x1="129.9283" y1="79.9506" x2="13.2183" y2="79.9506">
			<stop  offset="0" style="stop-color:#FFFFFF"/>
			<stop  offset="1" style="stop-color:#FFFFFF;stop-opacity:0"/>
		</linearGradient>
		
			<path style="fill-rule:evenodd;clip-rule:evenodd;fill:url(#SVGID_00000098931496745634888830000010246553968956163492_);stroke:#000000;stroke-width:0.2835;stroke-miterlimit:10;" d="
			M24.17,80.87C12.77,88.83,9.84,100.8,13.66,117c-0.93-7.73,1.21-15.17,6.26-22.11c5.88-8.09,15.1-14.28,23.82-18.97
			c7.65-4.12,14.01-10.23,14.28-19.47c0.12-4.46-1.14-9.04-2.61-13.54C57.71,69.23,38.85,70.62,24.17,80.87z"/>
	</g>
	<g>
		
			<radialGradient id="SVGID_00000133508069001658507690000014484302091306517144_" cx="50.1354" cy="288.4377" r="265.0028" gradientUnits="userSpaceOnUse">
			<stop  offset="0" style="stop-color:#FFFFFF"/>
			<stop  offset="0.5" style="stop-color:#F8B12D"/>
			<stop  offset="1" style="stop-color:#C31F22"/>
		</radialGradient>
		
			<path style="fill-rule:evenodd;clip-rule:evenodd;fill:url(#SVGID_00000133508069001658507690000014484302091306517144_);stroke:#000000;stroke-width:0.2835;stroke-miterlimit:10;" d="
			M79.54,168.02c0,2.74-2.22,4.97-4.97,4.97H40.3c-2.74,0-4.97-2.22-4.97-4.97c0-2.74,2.22-4.97,4.97-4.97h34.27
			C77.31,163.06,79.54,165.28,79.54,168.02z M57.44,184.81c4.8,0,8.7-3.89,8.7-8.69H48.74C48.74,180.92,52.64,184.81,57.44,184.81z
			 M39.17,91.65c-18.43,13.61-22.11,32.97-12.44,43.75c4.72,3.69,7.24,8.84,7.24,14.83c0,5.34,3.98,9.69,9.41,9.69H71.5
			c5.43,0,9.41-4.35,9.41-9.69c0-1.24,0.11-2.45,0.32-3.61c-34.84,12.01-45.25-24.7-9.82-42.51c26.96-13.56,32.91-34.77,16.23-58.63
			C94.58,69.05,60.15,76.17,39.17,91.65z"/>
		
			<radialGradient id="SVGID_00000060722362476568793940000006795189299317353359_" cx="65.1143" cy="68.5636" r="24.5562" gradientUnits="userSpaceOnUse">
			<stop  offset="0" style="stop-color:#FFFFFF"/>
			<stop  offset="0.5" style="stop-color:#F8B12D"/>
			<stop  offset="1" style="stop-color:#C31F22"/>
		</radialGradient>
		
			<path style="fill-rule:evenodd;clip-rule:evenodd;fill:url(#SVGID_00000060722362476568793940000006795189299317353359_);stroke:#000000;stroke-width:0.2835;stroke-miterlimit:10;" d="
			M39.17,91.65c21.83-14.63,64.15-19.41,48.47-46.18C94.58,69.05,60.15,76.17,39.17,91.65z"/>
		
			<radialGradient id="SVGID_00000031885568352157048070000011004852683010022017_" cx="76.2983" cy="79.6989" r="39.9645" gradientUnits="userSpaceOnUse">
			<stop  offset="0" style="stop-color:#FFFFFF"/>
			<stop  offset="0.33" style="stop-color:#FFFFFF"/>
			<stop  offset="0.66" style="stop-color:#FFFFFF;stop-opacity:0"/>
			<stop  offset="1" style="stop-color:#FFFFFF;stop-opacity:0"/>
		</radialGradient>
		
			<path style="fill-rule:evenodd;clip-rule:evenodd;fill:url(#SVGID_00000031885568352157048070000011004852683010022017_);stroke:#000000;stroke-width:0.2835;stroke-miterlimit:10;" d="
			M43.43,89.05c21.73-12.22,56.23-18.01,45.66-40.84C96.94,70.03,63.83,75.52,43.43,89.05z"/>
		
			<linearGradient id="SVGID_00000085938957780426577170000016280825964545742766_" gradientUnits="userSpaceOnUse" x1="81.8025" y1="180.4669" x2="57.9072" y2="180.4669">
			<stop  offset="0" style="stop-color:#FFFFFF"/>
			<stop  offset="1" style="stop-color:#FFFFFF;stop-opacity:0"/>
		</linearGradient>
		
			<path style="fill-rule:evenodd;clip-rule:evenodd;fill:url(#SVGID_00000085938957780426577170000016280825964545742766_);stroke:#000000;stroke-width:0.2835;stroke-miterlimit:10;" d="
			M57.44,183.4c3.54,0,6.49-2.53,7.15-5.87h-2.27C62.1,180.25,60.4,182.17,57.44,183.4z"/>
		
			<linearGradient id="SVGID_00000128461245465359912870000007468073265906335644_" gradientUnits="userSpaceOnUse" x1="202.537" y1="104.6355" x2="51.6157" y2="104.6355">
			<stop  offset="0" style="stop-color:#FFFFFF"/>
			<stop  offset="1" style="stop-color:#FFFFFF;stop-opacity:0"/>
		</linearGradient>
		
			<path style="fill-rule:evenodd;clip-rule:evenodd;fill:url(#SVGID_00000128461245465359912870000007468073265906335644_);stroke:#000000;stroke-width:0.2835;stroke-miterlimit:10;" d="
			M58.63,96.68c-25.47,14.34-33.11,30.98-25.9,43.43c2.96,5.12,9.47,9.82,17.87,12.32c-15.59-7.31-15.62-32.18,20.18-49.58
			C92.42,92.32,100.6,76,92.45,56.84C95.76,79.14,75.46,87.2,58.63,96.68z"/>
		
			<linearGradient id="SVGID_00000031903503204302672010000018073950330044472968_" gradientUnits="userSpaceOnUse" x1="-97.0343" y1="98.4733" x2="78.7916" y2="98.4733">
			<stop  offset="0" style="stop-color:#FFFFFF"/>
			<stop  offset="1" style="stop-color:#FFFFFF;stop-opacity:0"/>
		</linearGradient>
		
			<path style="fill-rule:evenodd;clip-rule:evenodd;fill:url(#SVGID_00000031903503204302672010000018073950330044472968_);stroke:#000000;stroke-width:0.2835;stroke-miterlimit:10;" d="
			M78.93,73.92c-19.21,11.1-45.79,14.69-54.29,38.27c-2.71,7.52-2.39,16.01,3.07,22.18c2.09,1.65,3.65,3.68,5.03,5.74
			c-7.21-12.45,0.43-29.09,25.9-43.43c16.82-9.47,37.12-17.53,33.82-39.84C92.1,64.91,85.4,70.18,78.93,73.92z"/>
	</g>
</g>
</svg>
